<svg width="154" height="69" viewBox="0 0 154 69" fill="none" xmlns="http://www.w3.org/2000/svg">
<g clip-path="url(#clip0_2_71)">
<path d="M133.135 47.0237C132.074 47.0237 131.441 47.6596 131.227 48.5212L128.891 57.2703L123.157 37.6386C123.157 37.6386 122.728 36.3565 121.249 36.3565C119.974 36.3565 119.127 37.2078 119.127 38.4899C119.127 38.7874 119.341 39.5567 119.341 39.5567L126.554 64.5322C126.769 65.3835 127.615 66.2349 128.676 66.2349C129.738 66.2349 130.544 65.3835 130.799 64.5322L133.135 55.9985L135.471 64.5322C135.727 65.3835 136.533 66.2349 137.594 66.2349C138.655 66.2349 139.502 65.3835 139.716 64.5322L146.939 39.5567C146.939 39.5567 147.154 38.7874 147.154 38.4899C147.154 37.2078 146.307 36.3565 145.031 36.3565C143.542 36.3565 143.124 37.6386 143.124 37.6386L137.39 57.2703L135.053 48.5212C134.839 47.6699 134.206 47.0237 133.145 47.0237M118.443 51.2906C118.443 39.7618 114.617 35.9257 108.893 35.9257C103.17 35.9257 99.3437 39.7721 99.3437 51.2906C99.3437 62.8091 103.17 66.6657 108.893 66.6657C114.617 66.6657 118.443 62.8193 118.443 51.2906ZM114.199 51.2906C114.199 60.2551 112.077 62.3885 108.893 62.3885C105.71 62.3885 103.588 60.2551 103.588 51.2906C103.588 42.326 105.71 40.1926 108.893 40.1926C112.077 40.1926 114.199 42.326 114.199 51.2906ZM88.8961 66.6657C93.3547 66.6657 95.9054 64.1014 96.7522 61.5372C96.7522 61.5372 96.9665 60.9013 96.9665 60.2551C96.9665 58.973 96.1197 58.1217 95.0586 58.1217C93.569 58.1217 93.1507 59.4038 93.1507 59.4038C92.5181 61.1064 91.2428 62.3885 88.9064 62.3885C85.7231 62.3885 83.6009 60.2551 83.6009 51.2906C83.6009 42.326 85.7231 40.1926 88.9064 40.1926C91.0285 40.1926 92.3039 41.4747 92.7324 42.7568C92.7324 42.7568 93.1609 44.0389 94.6403 44.0389C95.7014 44.0389 96.5482 43.1876 96.5482 41.9055C96.5482 41.2696 96.3339 40.6234 96.3339 40.6234C95.7013 38.4899 93.1507 35.9257 88.9064 35.9257C83.1724 35.9257 79.3566 39.7721 79.3566 51.2906C79.3566 62.8091 83.1826 66.6657 88.9064 66.6657H88.8961ZM132.737 9.55522C132.737 10.6219 133.37 11.2579 133.798 11.6887L139.746 17.453V29.1869C139.746 30.2536 140.807 31.3204 141.869 31.3204C142.93 31.3204 143.991 30.2536 143.991 29.1869V17.453L149.939 11.6887C150.367 11.2579 151 10.6219 151 9.55522V3.57544C151 2.50873 149.939 1.44201 148.878 1.44201C147.817 1.44201 146.756 2.50873 146.756 3.57544V8.69364L141.869 13.3913L136.981 8.69364V3.57544C136.981 2.50873 135.92 1.44201 134.859 1.44201C133.798 1.44201 132.737 2.50873 132.737 3.57544V9.55522ZM125.259 27.0638V3.58571C125.259 2.51899 124.198 1.45227 123.136 1.45227C122.075 1.45227 121.014 2.51899 121.014 3.58571V29.1972C121.014 30.2639 122.075 31.3306 123.136 31.3306H132.054C133.115 31.3306 134.176 30.2639 134.176 29.1972C134.176 28.1305 133.115 27.0638 132.054 27.0638H125.259ZM116.515 16.3863C116.515 4.85756 112.689 1.02148 106.965 1.02148C101.241 1.02148 97.4154 4.86782 97.4154 16.3863C97.4154 27.9048 101.241 31.7614 106.965 31.7614C112.689 31.7614 116.515 27.9151 116.515 16.3863ZM112.271 16.3863C112.271 25.3509 110.148 27.4843 106.965 27.4843C103.782 27.4843 101.66 25.3509 101.66 16.3863C101.66 7.42179 103.782 5.28834 106.965 5.28834C110.148 5.28834 112.271 7.42179 112.271 16.3863ZM79.7443 12.5502V3.58571C79.7443 2.51899 78.6832 1.45227 77.6222 1.45227C76.5611 1.45227 75.5 2.51899 75.5 3.58571V29.1972C75.5 30.2639 76.5611 31.3306 77.6222 31.3306C78.6832 31.3306 79.7443 30.2639 79.7443 29.1972V16.8171H88.6615V29.1972C88.6615 30.2639 89.7226 31.3306 90.7836 31.3306C91.8447 31.3306 92.9058 30.2639 92.9058 29.1972V3.58571C92.9058 2.51899 91.8447 1.45227 90.7836 1.45227C89.7226 1.45227 88.6615 2.51899 88.6615 3.58571V12.5502H79.7443Z" fill="white"/>
<path fill-rule="evenodd" clip-rule="evenodd" d="M49.7809 36.9336C53.3213 39.5955 57.708 50.8557 55.7861 58.0346C52.6878 69.5744 34.3843 65.9339 33.2503 63.9498C31.6 61.0675 31.765 61.2341 33.4792 59.4165C35.8111 56.9323 48.5244 63.8315 49.9778 54.9319C50.574 51.2912 49.371 46.5861 47.3904 43.5586C46.0968 41.5852 44.819 41.3647 47.3852 40.1925C49.3123 39.3105 48.1997 38.6492 49.7862 36.9284" fill="white"/>
<path d="M54.2958 47.0913C53.2205 43.3055 51.5115 39.9178 49.9091 38.2455C49.7493 38.525 49.6748 38.7671 49.6109 38.9769C49.3659 39.7727 49.1797 40.3587 47.7475 41.0149C47.0395 41.3375 46.7255 41.16 46.7733 41.2729C46.8212 41.3804 46.9916 41.5848 47.2045 41.8429C47.4707 42.1655 47.7956 42.5527 48.1308 43.069C49.2009 44.7036 50.0581 46.7954 50.5478 48.9626C51.0217 51.0328 51.16 53.1837 50.8514 55.0821C49.7759 61.6693 43.7175 60.7982 38.8409 60.0938C36.5887 59.7711 34.635 59.4862 34.1185 60.04C34.0067 60.1584 33.8896 60.282 33.7832 60.3949C32.8409 61.3791 32.8195 61.4058 34.0173 63.503C34.1451 63.7288 34.9811 64.073 36.2587 64.4226C38.0742 64.9227 40.6083 65.283 43.2436 65.1916C45.847 65.1 48.5462 64.5731 50.7288 63.2987C52.6828 62.1588 54.2319 60.4057 54.9295 57.803C55.7653 54.6948 55.3341 50.7317 54.3012 47.0913M50.3509 36.2451C52.406 37.826 54.6898 41.9719 56.0048 46.5965C57.1176 50.5113 57.5648 54.8132 56.6383 58.2655C55.8025 61.3843 53.9445 63.4869 51.6127 64.8527C49.1476 66.294 46.1557 66.8855 43.2915 66.9823C40.4591 67.0791 37.7441 66.6919 35.7902 66.1541C34.06 65.6809 32.8301 65.0195 32.4682 64.3956C30.5996 61.1263 30.6475 61.0725 32.4894 59.142C32.5854 59.0397 32.6917 58.9323 32.8195 58.7978C33.9695 57.5772 36.3386 57.9159 39.0804 58.3138C43.1849 58.9053 48.2959 59.6421 49.0837 54.7917C49.3553 53.1354 49.2223 51.221 48.8018 49.3605C48.3545 47.4032 47.5931 45.5158 46.6349 44.0584C46.358 43.639 46.0706 43.2894 45.831 42.9991C45.5328 42.6334 45.2933 42.3484 45.1443 42.0149C44.665 40.9448 45.0271 40.2835 47.0075 39.38C47.7156 39.0574 47.7956 38.7993 47.9073 38.4443C48.0775 37.8959 48.28 37.2345 49.1264 36.3204C49.4513 35.9708 49.9888 35.9386 50.3509 36.2451Z" fill="#1F1A17"/>
<path fill-rule="evenodd" clip-rule="evenodd" d="M15.2934 36.9336C11.753 39.5955 7.3662 50.8557 9.2881 58.0346C12.3866 69.5744 30.6899 65.9339 31.8239 63.9498C33.4742 61.0675 33.3092 61.2341 31.595 59.4165C29.2631 56.9323 16.5498 63.8315 15.0964 54.9319C14.5001 51.2912 15.7033 46.5861 17.6838 43.5586C18.9775 41.5852 20.2552 41.3647 17.6891 40.1925C15.7619 39.3105 16.8746 38.6492 15.2881 36.9284" fill="white"/>
<path d="M9.06464 46.5967C10.3796 41.9668 12.6636 37.8208 14.7239 36.2398C15.0859 35.9333 15.6183 35.9657 15.9431 36.3151C16.7842 37.2293 16.9918 37.8908 17.1622 38.4393C17.274 38.7941 17.3539 39.0523 18.0619 39.3749C20.0424 40.2784 20.4044 40.9398 19.9253 42.0099C19.7762 42.3432 19.5366 42.6336 19.2385 42.9939C18.9989 43.2843 18.7114 43.6339 18.4346 44.0534C17.4763 45.5105 16.715 47.398 16.2678 49.3553C15.8472 51.216 15.7141 53.125 15.9856 54.7866C16.7789 59.6369 21.8845 58.9003 25.9892 58.3088C28.7308 57.9161 31.0999 57.5721 32.2499 58.7926C32.3777 58.927 32.4842 59.0402 32.58 59.1368C34.4221 61.0727 34.4754 61.121 32.6014 64.3906C32.2447 65.0143 31.0096 65.6757 29.2792 66.149C27.3306 66.6814 24.6103 67.0738 21.7779 66.977C18.9138 66.8802 15.9217 66.2835 13.4568 64.8477C11.1196 63.4819 9.26697 61.3847 8.43112 58.2602C7.50477 54.8079 7.95197 50.5061 9.06464 46.5913M15.1658 38.2456C13.5633 39.918 11.8543 43.3059 10.7789 47.0914C9.74609 50.7319 9.31487 54.695 10.1507 57.8032C10.8481 60.4059 12.3974 62.159 14.3512 63.2989C16.534 64.5733 19.2332 65.1004 21.8366 65.1918C24.4719 65.2832 27.0006 64.9175 28.8213 64.4228C30.0991 64.0734 30.9349 63.7292 31.0626 63.5032C32.2605 61.406 32.2393 61.3793 31.297 60.3951C31.1852 60.2822 31.0735 60.1586 30.9615 60.0402C30.4452 59.4918 28.4913 59.7713 26.2393 60.094C21.3627 60.7984 15.3042 61.6697 14.2288 55.0823C13.92 53.1894 14.0637 51.033 14.5322 48.9628C15.022 46.801 15.8792 44.7093 16.9493 43.0692C17.2846 42.5584 17.6041 42.1711 17.8756 41.8431C18.0885 41.585 18.2589 41.3808 18.3068 41.2731C18.3547 41.1602 18.0406 41.3377 17.3326 41.0151C15.8951 40.3589 15.7141 39.7728 15.4692 38.977C15.4053 38.7619 15.3308 38.5254 15.1711 38.2456H15.1658Z" fill="#1F1A17"/>
<path fill-rule="evenodd" clip-rule="evenodd" d="M44.8088 17.5534C57.1175 17.5534 54.8974 1.85141 53.6251 1.58254C52.8744 1.42659 52.4272 2.25471 52.0066 3.27642C50.1486 7.78268 47.2257 10.6542 42.1148 10.8048C38.9684 10.8962 40.7627 12.5954 41.3111 14.7249C41.8807 16.935 42.7858 17.5534 44.8088 17.5534Z" fill="#F7F2BD"/>
<path d="M53.9655 13.3054C52.4376 16.1984 49.6479 18.4516 44.8084 18.4516C43.5947 18.4516 42.6948 18.2472 41.9708 17.6772C41.2522 17.118 40.789 16.2576 40.4483 14.9509C40.3311 14.4992 40.1234 14.0152 39.9372 13.5743C39.6656 12.9397 39.4315 12.3805 39.41 11.8105C39.3782 10.6705 39.9957 9.96603 42.0826 9.90687C44.4252 9.83697 46.2618 9.15404 47.7152 7.97103C49.1901 6.77187 50.3026 5.04572 51.1758 2.92702C51.4154 2.34627 51.6709 1.80853 51.9956 1.4106C52.464 0.840601 53.0338 0.539466 53.7951 0.700788C54.4658 0.840601 55.1634 2.22797 55.3975 4.17458C55.5467 5.41138 55.584 6.94393 55.3869 8.52489C55.1898 10.1274 54.748 11.7943 53.9547 13.3054M44.8084 16.6501C48.8492 16.6501 51.1544 14.8164 52.4001 12.4611C53.0763 11.176 53.4544 9.71867 53.6301 8.30442C53.8057 6.87403 53.7791 5.50279 53.6407 4.38968C53.4969 3.21203 53.465 2.4592 53.4438 2.45381C53.433 2.45381 53.4224 2.49147 53.3745 2.55062C53.1882 2.78183 53.0072 3.169 52.8261 3.60996C51.8412 5.99752 50.5636 7.96026 48.8334 9.36376C47.0817 10.7834 44.8989 11.6115 42.1358 11.6922C41.4066 11.7137 41.1883 11.7352 41.1883 11.7567C41.1935 11.9664 41.3746 12.3859 41.5717 12.8591C41.7791 13.343 42.0029 13.8754 42.1625 14.4938C42.3968 15.3972 42.6682 15.9511 43.0515 16.2522C43.4242 16.5426 43.9886 16.6501 44.8032 16.6501H44.8084Z" fill="#1F1A17"/>
<path fill-rule="evenodd" clip-rule="evenodd" d="M20.3082 17.5534C7.99951 17.5534 10.2195 1.85141 11.4919 1.58254C12.2426 1.42659 12.6898 2.25471 13.1104 3.27642C14.9684 7.78268 17.8912 10.6542 23.002 10.8048C26.1484 10.8962 24.3543 12.5954 23.8059 14.7249C23.2363 16.935 22.3312 17.5534 20.3082 17.5534Z" fill="#F7F2BD"/>
<path d="M12.7165 12.4611C13.9622 14.8164 16.2675 16.6501 20.3082 16.6501C21.1228 16.6501 21.6872 16.548 22.0599 16.2576C22.443 15.9564 22.7146 15.4026 22.9489 14.4992C23.1086 13.8808 23.3375 13.3484 23.5398 12.8644C23.742 12.3912 23.9179 11.9718 23.9231 11.7621C23.9231 11.7406 23.7048 11.7191 22.9756 11.6975C20.2124 11.6169 18.0297 10.7888 16.2781 9.36913C14.5479 7.96565 13.2701 6.0029 12.2852 3.61533C12.1042 3.1744 11.9232 2.78722 11.7369 2.55599C11.689 2.49684 11.6783 2.45381 11.6677 2.4592C11.6464 2.4592 11.6144 3.21741 11.4707 4.39505C11.3323 5.50817 11.3057 6.87941 11.4813 8.3098C11.657 9.72404 12.035 11.176 12.7111 12.4665M20.3082 18.4516C15.4689 18.4516 12.6792 16.1984 11.1513 13.3054C10.3527 11.7943 9.91612 10.1274 9.71915 8.52489C9.52217 6.93856 9.55942 5.41138 9.70849 4.17458C9.94807 2.22797 10.6455 0.840601 11.311 0.700788C12.0723 0.539466 12.6419 0.840601 13.1104 1.4106C13.4405 1.80853 13.6907 2.34627 13.9303 2.92702C14.8034 5.04572 15.9161 6.77187 17.3908 7.97103C18.8442 9.14867 20.6809 9.83697 23.0234 9.90687C25.1158 9.96603 25.728 10.6758 25.696 11.8105C25.6799 12.3805 25.4404 12.9397 25.1688 13.5743C24.9826 14.0152 24.7749 14.4938 24.6579 14.9509C24.3224 16.2576 23.854 17.118 23.1352 17.6772C22.4112 18.2418 21.5115 18.4462 20.2976 18.4462L20.3082 18.4516Z" fill="#1F1A17"/>
<path fill-rule="evenodd" clip-rule="evenodd" d="M47.5879 22.1133H62.9737C65.6357 23.0274 62.5798 30.9484 55.5842 31.0613C51.075 31.1311 43.0147 25.4096 47.5933 22.1133" fill="white"/>
<path d="M62.7818 23.0117H47.8857C47.4971 23.3343 47.2682 23.6731 47.1723 24.0118C47.0233 24.5335 47.1777 25.125 47.5344 25.7219C47.955 26.4318 48.6417 27.1308 49.4615 27.7599C51.3036 29.1688 53.7633 30.1904 55.5626 30.1582C58.3949 30.1151 60.5139 28.6419 61.7596 26.9641C62.2813 26.2649 62.6486 25.5338 62.8509 24.867C63.032 24.2646 63.0798 23.7268 62.9787 23.345C62.9362 23.1944 62.8724 23.0763 62.7764 23.0063M47.5874 21.2156H62.9735C63.1013 21.2156 63.2182 21.2426 63.3248 21.2909C64.0488 21.5598 64.5014 22.1298 64.7037 22.8879C64.89 23.5923 64.8367 24.4691 64.5547 25.3939C64.2937 26.2543 63.8305 27.1791 63.1864 28.0449C61.6531 30.099 59.0656 31.9006 55.5946 31.9543C53.4172 31.9865 50.5157 30.8143 48.3968 29.1903C47.396 28.4267 46.5548 27.5502 46.0171 26.6415C45.4154 25.6251 45.1705 24.5604 45.4687 23.5171C45.687 22.7374 46.2033 22.0114 47.0817 21.377C47.2362 21.2641 47.4172 21.2102 47.5983 21.2102L47.5874 21.2156Z" fill="#1F1A17"/>
<path fill-rule="evenodd" clip-rule="evenodd" d="M17.6626 22.1133H2.27673C-0.38519 23.0274 2.6707 30.9484 9.66621 31.0613C14.1755 31.1311 22.2357 25.4096 17.6573 22.1133" fill="white"/>
<path d="M2.28188 21.2152H17.6198C17.8115 21.2043 18.0085 21.2583 18.1788 21.3818C19.0573 22.0164 19.5684 22.7424 19.792 23.5221C20.0848 24.56 19.8452 25.6299 19.2436 26.6463C18.7059 27.555 17.8594 28.4263 16.8639 29.1952C14.7396 30.8192 11.8435 31.9968 9.66603 31.9591C6.19489 31.9054 3.60753 30.1041 2.07425 28.0498C1.42474 27.1787 0.966896 26.2591 0.706029 25.3989C0.423865 24.4739 0.370627 23.5974 0.556961 22.8929C0.76459 22.1078 1.24373 21.5324 2.00504 21.2689C2.09554 21.2422 2.19137 21.2206 2.29253 21.2206M17.3643 23.0113H2.47887C2.38304 23.0811 2.31382 23.1995 2.27125 23.35C2.17008 23.7373 2.21266 24.2696 2.399 24.8718C2.6013 25.5386 2.96866 26.27 3.49038 26.969C4.74149 28.6467 6.85506 30.1147 9.68734 30.1632C11.4868 30.19 13.9464 29.1738 15.7884 27.7648C16.6136 27.1356 17.2951 26.4312 17.7157 25.7268C18.0724 25.1246 18.2268 24.5385 18.0777 24.0168C17.9819 23.6781 17.7529 23.3394 17.3643 23.0165V23.0113Z" fill="#1F1A17"/>
<path fill-rule="evenodd" clip-rule="evenodd" d="M32.5743 10.1705C38.9895 9.88544 46.0489 15.4779 47.119 21.1134C47.6994 24.1623 48.4873 27.9964 48.4873 31.1154C48.4873 32.7018 48.6575 34.2127 48.6575 35.7721C48.6575 36.767 47.6994 39.16 49.2007 37.5253L32.5743 37.3585L15.948 37.5253C17.444 39.16 16.491 36.767 16.491 35.7721C16.491 34.2127 16.6614 32.7018 16.6614 31.1154C16.6614 27.9964 17.4493 24.1623 18.0296 21.1134C19.0997 15.4779 26.1592 9.88544 32.5743 10.1705Z" fill="white"/>
<path fill-rule="evenodd" clip-rule="evenodd" d="M48.4821 30.6419C46.4805 32.5561 43.7812 33.7285 40.8052 33.7285C34.635 33.7285 29.6304 28.6737 29.6304 22.4413C29.6304 17.0155 33.4211 12.4877 38.4682 11.4015C42.7537 13.3212 46.374 17.2091 47.1192 21.113C47.673 24.0114 48.4076 27.6142 48.4769 30.6419" fill="#AB8773"/>
<path d="M41.2095 14.0527C38.6808 12.1492 35.5663 10.9339 32.617 11.0629C32.617 11.0629 32.5637 11.0629 32.5423 11.0629C29.5929 10.9339 26.4784 12.1492 23.9497 14.0527C21.3623 15.9994 19.4084 18.645 18.908 21.28L18.7696 22.0006C18.2159 24.8829 17.5557 28.3297 17.5557 31.1098C17.5557 31.8949 17.5132 32.7016 17.4652 33.5081C17.4227 34.2449 17.3854 34.9761 17.3854 35.7667C17.3854 35.9549 17.4493 36.2829 17.5132 36.611L32.5637 36.4602H32.5743H32.5903L47.6513 36.611C47.7152 36.2936 47.7739 35.971 47.7739 35.7667C47.7739 34.9761 47.7312 34.2449 47.694 33.5081C47.6513 32.7016 47.6035 31.8949 47.6035 31.1098C47.6035 28.3136 46.9433 24.872 46.395 21.9951L46.2566 21.2746C45.7561 18.6396 43.8076 15.994 41.215 14.0474M32.5743 9.27223C35.939 9.1378 39.4421 10.4929 42.2636 12.6116C45.1917 14.8109 47.4066 17.8599 47.9922 20.9411L48.1306 21.6618C48.7002 24.6192 49.3763 28.1577 49.3763 31.1098C49.3763 31.9217 49.419 32.6692 49.4614 33.4113C49.5041 34.2125 49.552 35.0031 49.552 35.7667C49.552 36.0247 49.5041 36.3367 49.4454 36.6539C49.5786 36.6915 49.701 36.7615 49.8075 36.8583C50.1642 37.1971 50.1855 37.7616 49.8554 38.1273C48.9609 39.1006 48.3223 39.1705 47.8218 38.7027C47.7258 38.6114 47.6513 38.5091 47.5983 38.3962L32.5797 38.2457L17.5611 38.3962C17.5345 38.4499 17.5025 38.5037 17.4652 38.5574C17.428 38.6114 17.3854 38.6597 17.3428 38.7027C16.8424 39.1705 16.1982 39.1006 15.3091 38.1273C15.1654 37.9659 15.0748 37.7562 15.0695 37.5251C15.0695 37.1109 15.341 36.7615 15.7137 36.6539C15.6551 36.3421 15.6072 36.0356 15.6072 35.7612C15.6072 34.9976 15.6498 34.2073 15.6977 33.406C15.7403 32.664 15.7776 31.9165 15.7776 31.1044C15.7776 28.1307 16.4537 24.6085 17.018 21.6564L17.1565 20.9359C17.7421 17.8546 19.9568 14.8056 22.885 12.6062C25.7065 10.4822 29.2096 9.12706 32.5743 9.26685V9.27223Z" fill="#1F1A17"/>
<path fill-rule="evenodd" clip-rule="evenodd" d="M50.4412 39.918C52.4058 35.0137 49.531 32.9812 45.4208 32.1477C40.0437 31.0561 24.8762 31.0561 19.4992 32.1477C15.3891 32.9812 12.5196 35.0192 14.4788 39.918C21.0485 56.3297 43.8663 56.3297 50.436 39.918" fill="#EBB8C2"/>
<path fill-rule="evenodd" clip-rule="evenodd" d="M34.8637 31.3463C28.9915 31.2495 22.6082 31.5131 19.4992 32.1475C15.3891 32.9812 12.5196 35.0192 14.4788 39.918C18.1203 49.0218 26.7662 53.071 34.8637 52.0762C28.3633 51.2749 22.2143 47.2259 19.2862 39.918C17.3217 35.0137 20.1966 32.9812 24.3066 32.1475C26.5746 31.6852 30.5834 31.4216 34.8637 31.3463Z" fill="white"/>
<path d="M50.8939 33.9384C52.0865 35.4171 52.3845 37.4499 51.2614 40.2515C49.004 45.8978 44.8993 49.6888 40.1611 51.6191C37.7015 52.6248 35.0768 53.125 32.4576 53.125C29.8381 53.125 27.2082 52.6248 24.7538 51.6191C20.021 49.6833 15.9163 45.8978 13.6537 40.2515C12.5304 37.4499 12.8338 35.4171 14.0211 33.9384C15.155 32.5295 17.0823 31.7229 19.3236 31.2658C22.0813 30.7065 27.2827 30.4269 32.4576 30.4269C37.6322 30.4269 42.8336 30.7065 45.5915 31.2658C47.8328 31.7229 49.7599 32.5295 50.8939 33.9384ZM49.6163 39.5847C50.4575 37.4821 50.303 36.0462 49.5203 35.0729C48.6846 34.0298 47.114 33.406 45.2506 33.0242C42.6313 32.4919 37.5577 32.2284 32.4628 32.2284C27.3679 32.2284 22.2944 32.4919 19.675 33.0242C17.8063 33.406 16.2411 34.0298 15.4053 35.0729C14.6227 36.0462 14.4683 37.4821 15.3094 39.5847C17.3751 44.7415 21.1123 48.1938 25.4193 49.9577C27.6607 50.8718 30.0618 51.3289 32.4628 51.3289C34.8639 51.3289 37.2649 50.8718 39.5062 49.9577C43.8132 48.1992 47.5558 44.7415 49.6163 39.5847Z" fill="#1F1A17"/>
<path d="M20.6652 42.5906C20.4949 42.1281 20.7291 41.612 21.1871 41.4399C21.6449 41.2679 22.1558 41.5043 22.3263 41.9668C22.864 43.4188 24.3547 44.607 26.3032 45.4352C28.028 46.1666 30.0831 46.6022 32.1648 46.6829C34.2463 46.7634 36.344 46.4945 38.1487 45.817C40.1878 45.048 41.8487 43.7521 42.6368 41.8485C42.8284 41.3914 43.3502 41.1763 43.8026 41.3645C44.2552 41.5581 44.4681 42.0852 44.2817 42.5423C43.2809 44.946 41.2472 46.5591 38.7662 47.4948C36.738 48.2584 34.4007 48.5649 32.1009 48.4735C29.8009 48.382 27.5223 47.9036 25.611 47.0915C23.2313 46.0805 21.3839 44.5481 20.6599 42.5906" fill="#1F1A17"/>
<path fill-rule="evenodd" clip-rule="evenodd" d="M32.5267 0.89946L46.5284 10.0249L60.5355 19.1557H32.5267H4.52338L18.5251 10.0249L32.5267 0.89946Z" fill="#CF8761"/>
<path d="M46.0493 10.7833L32.5267 1.96972L19.0042 10.7833L7.54196 18.2525H57.5167L46.0545 10.7833H46.0493ZM33.0326 0.157534L47.0129 9.27222L61.0146 18.3976C61.4298 18.6665 61.5469 19.2204 61.2808 19.6398C61.1103 19.9087 60.8229 20.0539 60.5301 20.0539H32.5215H4.52336C4.03355 20.0539 3.63428 19.6506 3.63428 19.1559C3.63428 18.8171 3.8206 18.5213 4.09212 18.3708L18.0459 9.27759L32.0476 0.141401C32.3564 -0.0575619 32.745 -0.0414299 33.0326 0.157534Z" fill="#1F1A17"/>
<path d="M25.4618 18.5375C25.2595 18.9892 24.7324 19.1936 24.2854 18.9892C23.8381 18.7849 23.6359 18.2525 23.8381 17.8008L29.1247 6.00281L15.8363 19.2473C15.485 19.5969 14.926 19.5915 14.5799 19.2366C14.2339 18.8817 14.2392 18.317 14.5906 17.9675L31.2595 1.36213C31.5096 1.0825 31.925 0.985708 32.2817 1.14703C32.7289 1.35137 32.9312 1.88373 32.7289 2.33542L25.4672 18.5375H25.4618Z" fill="#1F1A17"/>
<path d="M33.3891 18.4459C33.3891 18.9406 32.9899 19.3439 32.5001 19.3439C32.0104 19.3439 31.611 18.9406 31.611 18.4459V1.95879C31.611 1.46407 32.0104 1.06077 32.5001 1.06077C32.9899 1.06077 33.3891 1.46407 33.3891 1.95879V18.4459Z" fill="#1F1A17"/>
<path d="M41.1831 17.8006C41.3854 18.2523 41.1831 18.7847 40.7359 18.9891C40.2889 19.1934 39.7617 18.989 39.5595 18.5374L32.2977 2.33527C32.0955 1.88357 32.2977 1.3512 32.745 1.14686C33.1069 0.980164 33.5168 1.08233 33.7724 1.36196L50.4306 17.9673C50.7821 18.3169 50.7873 18.8815 50.4414 19.2364C50.0953 19.5913 49.5364 19.5967 49.1849 19.2472L35.8965 6.00264L41.1831 17.8006Z" fill="#1F1A17"/>
<path fill-rule="evenodd" clip-rule="evenodd" d="M31.728 49.5378C32.4255 50.9199 32.3562 64.1537 31.1904 65.2506C29.3961 66.9444 23.9818 66.1325 22.9437 63.5837C20.7769 58.2601 29.6943 45.5103 31.728 49.5378Z" fill="#4D4A47"/>
<path d="M31.2433 58.5561C31.371 54.7381 31.2593 50.5923 30.9344 49.947C30.8281 49.7425 30.7003 49.6566 30.5513 49.6672C30.2052 49.6942 29.742 49.9522 29.215 50.3825C28.6028 50.8773 27.9533 51.5817 27.3144 52.4097C24.8654 55.604 22.6719 60.5726 23.7632 63.2452C23.8431 63.4442 23.9709 63.627 24.1307 63.8045C24.7376 64.4604 25.7865 64.9123 26.899 65.1166C28.033 65.3263 29.1936 65.2832 30.0135 64.9445C30.2425 64.8477 30.4341 64.7348 30.5831 64.5949C30.9132 64.2831 31.1369 61.5729 31.2381 58.5507M32.521 49.1349C32.9629 50.0114 33.1545 54.5554 33.0161 58.6153C32.899 62.0406 32.5156 65.2403 31.797 65.9178C31.4936 66.2082 31.1155 66.434 30.6949 66.6116C29.5609 67.0847 28.0278 67.16 26.585 66.8911C25.1261 66.6168 23.7102 65.9876 22.8369 65.0358C22.5335 64.7078 22.294 64.3423 22.129 63.9335C20.782 60.6211 23.1724 54.8995 25.9142 51.3182C26.6382 50.3771 27.3889 49.5704 28.1075 48.9898C28.9114 48.3391 29.7047 47.9358 30.4287 47.882C31.3232 47.8122 32.0526 48.194 32.5317 49.1403L32.521 49.1349Z" fill="#1F1A17"/>
<path fill-rule="evenodd" clip-rule="evenodd" d="M33.2667 49.5378C32.5694 50.9199 32.6387 64.1537 33.8045 65.2506C35.604 66.9444 41.0129 66.1325 42.0512 63.5837C44.218 58.2601 35.3006 45.5103 33.2667 49.5378Z" fill="#4D4A47"/>
<path d="M31.9779 58.6099C31.8395 54.5499 32.0312 50.0062 32.473 49.1297C32.9522 48.1831 33.6815 47.8013 34.5759 47.8714C35.2999 47.9251 36.0932 48.3284 36.8917 48.9791C37.6105 49.5652 38.3612 50.3665 39.0852 51.3074C41.8324 54.8889 44.2228 60.6157 42.8705 63.9229C42.7054 64.3314 42.4605 64.6971 42.1625 65.0252C41.2841 65.977 39.8731 66.6061 38.4145 66.8805C36.9716 67.1493 35.4383 67.0741 34.3045 66.6007C33.8785 66.4234 33.5058 66.1921 33.2024 65.9071C32.4836 65.2295 32.1005 62.0354 31.9833 58.6046M34.0596 49.947C33.7347 50.5868 33.623 54.7329 33.7562 58.5561C33.8573 61.5783 34.0808 64.2831 34.4109 64.6003C34.5599 64.7402 34.7515 64.8585 34.9805 64.9499C35.8004 65.2886 36.961 65.3372 38.095 65.122C39.213 64.9123 40.2618 64.4606 40.8635 63.81C41.0285 63.6324 41.1509 63.4443 41.2308 63.2506C42.3221 60.5728 40.1286 55.6094 37.6798 52.4151C37.0409 51.5871 36.3914 50.8827 35.7792 50.388C35.252 49.9577 34.7888 49.6997 34.4429 49.6727C34.2937 49.662 34.1659 49.748 34.0596 49.9525V49.947Z" fill="#1F1A17"/>
<path d="M16.8479 25.1837C17.3377 25.1837 17.737 25.5871 17.737 26.0818C17.737 26.5765 17.3377 26.9798 16.8479 26.9798H10.1559C9.66608 26.9798 9.26678 26.5765 9.26678 26.0818C9.26678 25.5871 9.66608 25.1837 10.1559 25.1837H16.8479Z" fill="#1F1A17"/>
<path d="M55.2804 25.1837C55.7703 25.1837 56.1694 25.5871 56.1694 26.0818C56.1694 26.5765 55.7703 26.9798 55.2804 26.9798H48.5883C48.0986 26.9798 47.6992 26.5765 47.6992 26.0818C47.6992 25.5871 48.0986 25.1837 48.5883 25.1837H55.2804Z" fill="#1F1A17"/>
<path d="M21.1334 29.2602C20.6436 29.2602 20.2443 28.8568 20.2443 28.3621C20.2443 27.8674 20.6436 27.4641 21.1334 27.4641H28.2089C28.6985 27.4641 29.0979 27.8674 29.0979 28.3621C29.0979 28.8568 28.6985 29.2602 28.2089 29.2602H21.1334Z" fill="#1F1A17"/>
<path d="M37.02 29.2602C36.5301 29.2602 36.1309 28.8568 36.1309 28.3621C36.1309 27.8674 36.5301 27.4641 37.02 27.4641H44.0952C44.5851 27.4641 44.9845 27.8674 44.9845 28.3621C44.9845 28.8568 44.5851 29.2602 44.0952 29.2602H37.02Z" fill="#1F1A17"/>
<path fill-rule="evenodd" clip-rule="evenodd" d="M23.7795 36.5462C25.7174 37.6755 26.8033 39.45 26.2018 40.4986C25.6002 41.5524 23.5399 41.488 21.602 40.3587C19.6641 39.2294 18.578 37.4549 19.1796 36.4063C19.7812 35.3522 21.8416 35.4169 23.7795 36.5462Z" fill="#1F1A17"/>
<path fill-rule="evenodd" clip-rule="evenodd" d="M41.1563 36.4548C39.2184 37.5841 38.1325 39.3584 38.7339 40.407C39.3355 41.461 41.3958 41.3966 43.3337 40.2673C45.2716 39.138 46.3577 37.3635 45.7561 36.3149C45.1545 35.2609 43.0942 35.3255 41.1563 36.4548Z" fill="#1F1A17"/>
</g>
<defs>
<clipPath id="clip0_2_71">
<rect width="151" height="69" fill="white"/>
</clipPath>
</defs>
</svg>
